# xmcd
# Track frame offsets:
# 150
# 9927
# 21647
# 30797
# 40717
# 50937
# 59960
# 69192
# 81955
# 94245
# 104387
# 113225
# 123582
# 133100
# 141187
# 152662
# 161525
# 172332
# 183400
# 196005
#
# Disc length: 2726 seconds
# Revision: 0
# Processed by: cddbd v1.4PL0 Copyright (c) Steve Scherf et al.
# Submitted via: VisiTrax 2.9.5.181 - For more info visit www.synapsa.com
#
DISCID=1a0aa414
DTITLE=Roger Miller - The Masters
DYEAR=1998
DGENRE=Country
TTITLE0=The Swiss Maid
TTITLE1=Footprints In The Snow
TTITLE2=In The Summertime (You Don't Want My Love)
TTITLE3=Every Which-A-Way
TTITLE4=When Two Worlds Collide
TTITLE5=If You Want Me To
TTITLE6=Early In The Morning
TTITLE7=I'll Be Somewhere
TTITLE8=I Catch Myself Crying
TTITLE9=You Can't Do Me This Way
TTITLE10=You're Part Of Me
TTITLE11=But I Love You More
TTITLE12=I Know Who It Is (And I'm Going To Tell On 'Em)
TTITLE13=It Happened Just That Way
TTITLE14=Lock Stock And Teardrops
TTITLE15=Trouble On The Turnpike
TTITLE16=Hey Little Star
TTITLE17=Sorry Willie
TTITLE18=Hitch Hiker
TTITLE19=Burma Shave
EXTD=
EXTT0=
EXTT1=
EXTT2=
EXTT3=
EXTT4=
EXTT5=
EXTT6=
EXTT7=
EXTT8=
EXTT9=
EXTT10=
EXTT11=
EXTT12=
EXTT13=
EXTT14=
EXTT15=
EXTT16=
EXTT17=
EXTT18=
EXTT19=
PLAYORDER=
